HIERARCHY
ROOT hip
{
  OFFSET 0 0 0
  CHANNELS 6 Xposition Yposition Zposition Zrotation Yrotation Xrotation
  JOINT abdomen
  {
    OFFSET 0 20.6881 -0.73152
    CHANNELS 3 Zrotation Xrotation Yrotation
    JOINT chest
    {
      OFFSET 0 11.7043 -0.48768
      CHANNELS 3 Zrotation Xrotation Yrotation
      JOINT neck
      {
        OFFSET 0 22.1894 -2.19456
        CHANNELS 3 Zrotation Xrotation Yrotation
        JOINT head
        {
          OFFSET -0.24384 7.07133 1.2192
          CHANNELS 3 Zrotation Xrotation Yrotation
          JOINT leftEye
          {
            OFFSET 4.14528 8.04674 8.04672
            CHANNELS 3 Zrotation Xrotation Yrotation
            End Site
            {
              OFFSET 1 0 0
            }
          }
          JOINT rightEye
          {
            OFFSET -3.6576 8.04674 8.04672
            CHANNELS 3 Zrotation Xrotation Yrotation
            End Site
            {
              OFFSET 1 0 0
            }
          }
        }
      }
      JOINT rCollar
      {
        OFFSET -2.68224 19.2634 -4.8768
        CHANNELS 3 Zrotation Xrotation Yrotation
        JOINT rShldr
        {
          OFFSET -8.77824 -1.95073 1.46304
          CHANNELS 3 Zrotation Xrotation Yrotation
          JOINT rForeArm
          {
            OFFSET -28.1742 -1.7115 0.48768
            CHANNELS 3 Zrotation Xrotation Yrotation
            JOINT rHand
            {
              OFFSET -22.5879 0.773209 7.07136
              CHANNELS 3 Zrotation Xrotation Yrotation
              JOINT rThumb1
              {
                OFFSET -1.2192 -0.487915 3.41376
                CHANNELS 3 Zrotation Xrotation Yrotation
                JOINT rThumb2
                {
                  OFFSET -3.37035 -0.52449 3.41376
                  CHANNELS 3 Zrotation Xrotation Yrotation
                  End Site
                  {
                    OFFSET -1.78271 -1.18214 1.43049
                  }
                }
              }
              JOINT rIndex1
              {
                OFFSET -7.75947 0.938293 5.60832
                CHANNELS 3 Zrotation Xrotation Yrotation
                JOINT rIndex2
                {
                  OFFSET -2.54057 -0.884171 1.56538
                  CHANNELS 3 Zrotation Xrotation Yrotation
                  End Site
                  {
                    OFFSET -1.62519 -0.234802 1.16502
                  }
                }
              }
              JOINT rMid1
              {
                OFFSET -8.24714 1.18213 3.41376
                CHANNELS 3 Zrotation Xrotation Yrotation
                JOINT rMid2
                {
                  OFFSET -3.10165 -0.590103 1.0647
                  CHANNELS 3 Zrotation Xrotation Yrotation
                  End Site
                  {
                    OFFSET -2.48547 -0.328903 0.83742
                  }
                }
              }
              JOINT rRing1
              {
                OFFSET -8.82822 0.546677 1.51678
                CHANNELS 3 Zrotation Xrotation Yrotation
                JOINT rRing2
                {
                  OFFSET -2.60934 -0.819778 -0.0198488
                  CHANNELS 3 Zrotation Xrotation Yrotation
                  End Site
                  {
                    OFFSET -2.33842 -0.294052 0.168128
                  }
                }
              }
              JOINT rPinky1
              {
                OFFSET -8.27202 -0.0477905 -0.4584
                CHANNELS 3 Zrotation Xrotation Yrotation
                JOINT rPinky2
                {
                  OFFSET -1.82734 -0.647385 -0.700984
                  CHANNELS 3 Zrotation Xrotation Yrotation
                  End Site
                  {
                    OFFSET -1.69225 -0.51767 -0.607171
                  }
                }
              }
            }
          }
        }
      }
      JOINT lCollar
      {
        OFFSET 2.68224 19.2634 -4.8768
        CHANNELS 3 Zrotation Xrotation Yrotation
        JOINT lShldr
        {
          OFFSET 8.77824 -1.95073 1.46304
          CHANNELS 3 Zrotation Xrotation Yrotation
          JOINT lForeArm
          {
            OFFSET 28.1742 -1.7115 0.48768
            CHANNELS 3 Zrotation Xrotation Yrotation
            JOINT lHand
            {
              OFFSET 22.5879 0.773209 7.07136
              CHANNELS 3 Zrotation Xrotation Yrotation
              JOINT lThumb1
              {
                OFFSET 1.2192 -0.487915 3.41376
                CHANNELS 3 Zrotation Xrotation Yrotation
                JOINT lThumb2
                {
                  OFFSET 3.37035 -0.52449 3.41376
                  CHANNELS 3 Zrotation Xrotation Yrotation
                  End Site
                  {
                    OFFSET 1.78271 -1.18214 1.43049
                  }
                }
              }
              JOINT lIndex1
              {
                OFFSET 7.75947 0.938293 5.60832
                CHANNELS 3 Zrotation Xrotation Yrotation
                JOINT lIndex2
                {
                  OFFSET 2.54057 -0.884171 1.56538
                  CHANNELS 3 Zrotation Xrotation Yrotation
                  End Site
                  {
                    OFFSET 1.62519 -0.234802 1.16502
                  }
                }
              }
              JOINT lMid1
              {
                OFFSET 8.24714 1.18213 3.41376
                CHANNELS 3 Zrotation Xrotation Yrotation
                JOINT lMid2
                {
                  OFFSET 3.10165 -0.590103 1.0647
                  CHANNELS 3 Zrotation Xrotation Yrotation
                  End Site
                  {
                    OFFSET 2.48547 -0.328903 0.83742
                  }
                }
              }
              JOINT lRing1
              {
                OFFSET 8.82822 0.546677 1.51678
                CHANNELS 3 Zrotation Xrotation Yrotation
                JOINT lRing2
                {
                  OFFSET 2.60934 -0.819778 -0.0198488
                  CHANNELS 3 Zrotation Xrotation Yrotation
                  End Site
                  {
                    OFFSET 2.33842 -0.294052 0.168128
                  }
                }
              }
              JOINT lPinky1
              {
                OFFSET 8.27202 -0.0477905 -0.4584
                CHANNELS 3 Zrotation Xrotation Yrotation
                JOINT lPinky2
                {
                  OFFSET 1.82734 -0.647385 -0.700984
                  CHANNELS 3 Zrotation Xrotation Yrotation
                  End Site
                  {
                    OFFSET 1.69225 -0.51767 -0.607171
                  }
                }
              }
            }
          }
        }
      }
    }
  }
  JOINT rButtock
  {
    OFFSET -8.77824 4.35084 1.2192
    CHANNELS 3 Zrotation Xrotation Yrotation
    JOINT rThigh
    {
      OFFSET 0 -1.70687 -2.19456
      CHANNELS 3 Zrotation Xrotation Yrotation
      JOINT rShin
      {
        OFFSET 0 -36.8199 0.73152
        CHANNELS 3 Zrotation Xrotation Yrotation
        JOINT rFoot
        {
          OFFSET 0.73152 -45.1104 -5.12064
          CHANNELS 3 Zrotation Xrotation Yrotation
          End Site
          {
            OFFSET -1.1221 -3.69964 12.103
          }
        }
      }
    }
  }
  JOINT lButtock
  {
    OFFSET 8.77824 4.35084 1.2192
    CHANNELS 3 Zrotation Xrotation Yrotation
    JOINT lThigh
    {
      OFFSET 0 -1.70687 -2.19456
      CHANNELS 3 Zrotation Xrotation Yrotation
      JOINT lShin
      {
        OFFSET 0 -36.8199 0.73152
        CHANNELS 3 Zrotation Xrotation Yrotation
        JOINT lFoot
        {
          OFFSET -0.73152 -45.1104 -5.12064
          CHANNELS 3 Zrotation Xrotation Yrotation
          End Site
          {
            OFFSET 1.1221 -3.69964 12.103
          }
        }
      }
    }
  }
}
MOTION
Frames:	6
Frame Time:	0.00833333
-125.472 71.3834 -10.4599 111.437 76.3552 131.135 -11.7344 26.5948 -4.01991 3.24574 -2.01643 -1.2976 -0.719876 -11.3321 0.889135 -1.49774 -8.80442 2.05495 -0.0 0.0 0.0 -0.0 0.0 0.0 2.63803e-13 1.13098e-11 2.17123e-13 113.296 46.1393 -70.6149 -25.188 -21.5054 53.6234 -0.73777 -23.6318 -3.52555 -3.00244e-09 -7.938e-10 1.87055e-09 -5.21592e-09 -1.3643e-09 3.18253e-09 -3.00244e-09 -7.93791e-10 1.87053e-09 7.73091 5.47488 0.417314 -3.00245e-09 -7.9379e-10 1.87056e-09 2.90554 0.965183 0.102902 -3.00243e-09 -7.9379e-10 1.87054e-09 10.2786 0.731801 0.0259123 -3.00244e-09 -7.9379e-10 1.87055e-09 2.22167 -0.733487 -0.20892 2.63789e-13 1.13098e-11 2.16973e-13 -35.3537 53.1177 -47.5721 28.3698 -33.7587 -73.3051 0.0507312 -6.41449 0.905321 -2.28385e-09 -7.12099e-09 5.93149e-09 -3.97349e-09 -1.23084e-08 1.02336e-08 -2.28385e-09 -7.12099e-09 5.9315e-09 -7.73091 5.47488 -0.417314 -2.28385e-09 -7.121e-09 5.93149e-09 -2.90554 0.965183 -0.102902 -2.28385e-09 -7.121e-09 5.93148e-09 -10.2786 0.731801 -0.0259123 -2.28384e-09 -7.121e-09 5.93147e-09 -2.22167 -0.733487 0.20892 -2.03217e-16 0.0 -3.88251e-19 -50.2129 -66.7809 -47.8533 -3.56242 77.1192 4.31721 -6.58932 -15.3333 -15.903 2.03217e-16 0.0 3.88251e-19 -10.057 11.9783 1.40703 -0.0889583 4.49528 -0.821286 -3.27913 -21.7381 -9.53765
-124.081 71.2618 -10.522 115.281 76.0875 134.808 -10.5322 26.5001 -4.79186 3.40059 -1.98448 -1.44262 -0.648542 -12.0328 1.00476 -2.13172 -8.06884 2.23645 -0.0 0.0 0.0 -0.0 0.0 0.0 2.36962e-13 9.75421e-12 2.20284e-13 113.941 45.7899 -73.1674 -25.3477 -21.8608 54.236 -0.66978 -22.6718 -3.36369 -3.52557e-09 -1.22274e-09 3.03008e-09 -6.13619e-09 -2.10823e-09 5.18213e-09 -3.52557e-09 -1.22273e-09 3.03007e-09 7.73091 5.47488 0.417314 -3.52558e-09 -1.22273e-09 3.03009e-09 2.90554 0.965183 0.102902 -3.52556e-09 -1.22273e-09 3.03008e-09 10.2786 0.731801 0.0259123 -3.52557e-09 -1.22273e-09 3.03009e-09 2.22167 -0.733487 -0.20892 2.36968e-13 9.75421e-12 2.20102e-13 -33.569 53.4208 -48.5433 28.3963 -34.3297 -74.283 0.0452659 -6.10502 0.861231 -2.64014e-09 -7.94484e-09 6.54726e-09 -4.59179e-09 -1.37358e-08 1.12988e-08 -2.64014e-09 -7.94484e-09 6.54728e-09 -7.73091 5.47488 -0.417314 -2.64014e-09 -7.94484e-09 6.54727e-09 -2.90554 0.965183 -0.102902 -2.64014e-09 -7.94484e-09 6.54726e-09 -10.2786 0.731801 -0.0259123 -2.64013e-09 -7.94484e-09 6.54725e-09 -2.22167 -0.733487 0.20892 -2.03217e-16 0.0 -3.88251e-19 -49.3325 -65.7118 -47.8989 -3.61934 77.3112 4.3987 -7.12603 -15.7567 -16.9297 2.03217e-16 0.0 3.88251e-19 -9.58015 12.4939 0.547637 -0.0877124 4.82758 -0.818469 -3.00454 -20.7511 -9.26261
-122.702 71.155 -10.5419 118.414 75.9938 137.978 -9.29175 26.386 -5.45548 3.60717 -1.88252 -1.55652 -0.647385 -12.9908 1.08504 -2.78995 -7.2419 2.39598 -0.0 0.0 0.0 -0.0 0.0 0.0 1.52874e-13 5.60623e-12 1.80099e-13 113.601 45.3265 -74.7722 -25.4753 -22.154 54.7104 -0.578093 -21.2119 -3.12393 -3.92225e-09 -1.75397e-09 4.55105e-09 -6.8433e-09 -3.03103e-09 7.81028e-09 -3.92225e-09 -1.75396e-09 4.55104e-09 7.73091 5.47488 0.417314 -3.92225e-09 -1.75396e-09 4.55106e-09 2.90554 0.965183 0.102902 -3.92224e-09 -1.75396e-09 4.55105e-09 10.2786 0.731801 0.0259123 -3.92225e-09 -1.75396e-09 4.55106e-09 2.22167 -0.733487 -0.20892 1.52917e-13 5.60623e-12 1.79869e-13 -31.9152 53.7626 -49.3876 28.4181 -34.8379 -75.1046 0.0367282 -5.54462 0.7816 -2.87502e-09 -8.27901e-09 6.7185e-09 -4.99834e-09 -1.43188e-08 1.15988e-08 -2.87502e-09 -8.27901e-09 6.71852e-09 -7.73091 5.47488 -0.417314 -2.87502e-09 -8.27901e-09 6.71851e-09 -2.90554 0.965183 -0.102902 -2.87502e-09 -8.27901e-09 6.7185e-09 -10.2786 0.731801 -0.0259123 -2.87501e-09 -8.27901e-09 6.7185e-09 -2.22167 -0.733487 0.20892 -2.03217e-16 0.0 -3.88251e-19 -47.9575 -64.4296 -47.6095 -3.62627 77.3765 4.44023 -7.89834 -16.5545 -18.2121 2.03217e-16 0.0 3.88251e-19 -9.11344 12.8892 -0.551299 -0.085751 5.31973 -0.811866 -2.59132 -19.6879 -8.61432
-121.332 71.012 -10.5161 120.185 76.1517 140.091 -8.1025 26.2789 -5.94337 3.80496 -1.75122 -1.62592 -0.643589 -13.915 1.14067 -3.43094 -6.51675 2.50571 -0.0 0.0 0.0 -0.0 0.0 0.0 4.65107e-14 9.71792e-13 1.10345e-13 112.745 44.9352 -75.5989 -25.5647 -22.3645 55.0361 -0.493251 -19.6452 -2.87393 -4.08097e-09 -2.19915e-09 5.90886e-09 -7.1367e-09 -3.80533e-09 1.01597e-08 -4.08097e-09 -2.19914e-09 5.90885e-09 7.73091 5.47488 0.417314 -4.08097e-09 -2.19915e-09 5.90886e-09 2.90554 0.965183 0.102902 -4.08096e-09 -2.19914e-09 5.90886e-09 10.2786 0.731801 0.0259123 -4.08097e-09 -2.19914e-09 5.90887e-09 2.22167 -0.733487 -0.20892 4.65857e-14 9.71791e-13 1.1007e-13 -30.5092 54.2056 -50.0148 28.4318 -35.272 -75.7926 0.0295365 -4.96032 0.698821 -2.94471e-09 -8.06687e-09 6.45142e-09 -5.11757e-09 -1.39572e-08 1.11424e-08 -2.94472e-09 -8.06687e-09 6.45144e-09 -7.73091 5.47488 -0.417314 -2.94471e-09 -8.06687e-09 6.45143e-09 -2.90554 0.965183 -0.102902 -2.94472e-09 -8.06687e-09 6.45143e-09 -10.2786 0.731801 -0.0259123 -2.94471e-09 -8.06687e-09 6.45142e-09 -2.22167 -0.733487 0.20892 -2.03217e-16 0.0 -3.88251e-19 -46.1019 -63.1149 -46.7878 -3.58811 77.3142 4.43221 -8.65896 -17.5211 -19.2695 2.03217e-16 0.0 3.88251e-19 -8.63506 13.1266 -1.64602 -0.0816678 6.08796 -0.80128 -2.11925 -18.453 -7.78587
-119.905 70.8889 -10.5829 120.376 76.1962 140.752 -7.05228 26.2053 -6.18881 3.93295 -1.63127 -1.63748 -0.565074 -14.5141 1.18182 -4.01052 -6.08642 2.53765 -0.0 0.0 0.0 -0.0 0.0 0.0 -4.71539e-14 -2.04317e-12 2.47984e-14 111.842 44.7596 -75.811 -25.6093 -22.4707 55.2024 -0.432399 -18.3658 -2.6743 -3.89024e-09 -2.36996e-09 6.5789e-09 -6.8158e-09 -4.1038e-09 1.13229e-08 -3.89024e-09 -2.36995e-09 6.5789e-09 7.73091 5.47488 0.417314 -3.89024e-09 -2.36996e-09 6.57891e-09 2.90554 0.965183 0.102902 -3.89023e-09 -2.36995e-09 6.57891e-09 10.2786 0.731801 0.0259123 -3.89024e-09 -2.36995e-09 6.57891e-09 2.22167 -0.733487 -0.20892 -4.70731e-14 -2.04317e-12 2.45002e-14 -29.4705 54.8141 -50.3337 28.4333 -35.6172 -76.3698 0.025787 -4.5792 0.644952 -2.80546e-09 -7.25181e-09 5.75225e-09 -4.87389e-09 -1.25509e-08 9.9383e-09 -2.80547e-09 -7.25181e-09 5.75226e-09 -7.73091 5.47488 -0.417314 -2.80546e-09 -7.2518e-09 5.75226e-09 -2.90554 0.965183 -0.102902 -2.80547e-09 -7.2518e-09 5.75226e-09 -10.2786 0.731801 -0.0259123 -2.80546e-09 -7.2518e-09 5.75225e-09 -2.22167 -0.733487 0.20892 -2.03217e-16 0.0 -3.88251e-19 -43.8014 -61.9332 -45.2463 -3.51274 77.1233 4.36802 -9.10896 -18.4754 -19.6046 2.03217e-16 0.0 3.88251e-19 -8.13121 13.1725 -2.49083 -0.0742522 7.2485 -0.786615 -1.65923 -16.955 -6.9679
-118.457 70.8891 -10.678 120.541 75.9296 141.183 -6.05641 26.1534 -6.13838 3.93448 -1.5135 -1.57267 -0.378037 -14.693 1.20121 -4.52903 -6.01367 2.45662 -0.0 0.0 0.0 -0.0 0.0 0.0 -1.36333e-13 -2.7419e-12 -1.03041e-13 110.946 44.7704 -75.3272 -25.5909 -22.4269 55.1317 -0.385373 -17.3429 -2.51612 -3.02117e-09 -2.11201e-09 6.20831e-09 -5.30669e-09 -3.6591e-09 1.06934e-08 -3.02117e-09 -2.11201e-09 6.20831e-09 7.73091 5.47488 0.417314 -3.02117e-09 -2.11202e-09 6.20832e-09 2.90554 0.965183 0.102902 -3.02116e-09 -2.11201e-09 6.20832e-09 10.2786 0.731801 0.0259123 -3.02117e-09 -2.11201e-09 6.20833e-09 2.22167 -0.733487 -0.20892 -1.36296e-13 -2.74191e-12 -1.03333e-13 -28.7303 55.6258 -50.3839 28.4279 -35.8921 -76.8533 0.0248259 -4.45998 0.628126 -2.27235e-09 -5.16819e-09 4.07601e-09 -3.94525e-09 -8.94727e-09 7.04453e-09 -2.27235e-09 -5.16819e-09 4.07603e-09 -7.73091 5.47488 -0.417314 -2.27235e-09 -5.16818e-09 4.07602e-09 -2.90554 0.965183 -0.102902 -2.27236e-09 -5.16818e-09 4.07602e-09 -10.2786 0.731801 -0.0259123 -2.27235e-09 -5.16818e-09 4.07602e-09 -2.22167 -0.733487 0.20892 -2.03217e-16 0.0 -3.88251e-19 -40.7589 -60.8658 -42.6346 -3.37675 76.7125 4.22055 -9.0713 -19.5429 -18.8572 2.03217e-16 0.0 3.88251e-19 -7.46414 13.0978 -3.03393 -0.0671942 8.75152 -0.765547 -1.22727 -15.1296 -6.18944
